<?xml version="1.0" encoding="UTF-8"?>
<svg version="1.1" xmlns="http://www.w3.org/2000/svg" width="50" height="39">
<path d="M0 0 C3 1 3 1 4.375 2.9375 C6.34021038 5.43180549 8.06876871 5.92007268 11 7 C11.495 7.99 11.495 7.99 12 9 C12.825 9.45375 13.65 9.9075 14.5 10.375 C17 12 17 12 17.9375 13.875 C18.02920069 16.99282342 17.75891437 18.36162844 16 21 C6.04798579 25.89542399 -5.45118647 25.98949398 -16.08984375 23.73046875 C-18.41619834 22.84084031 -19.51442018 22.0021045 -21 20 C-21.3984375 17.80859375 -21.3984375 17.80859375 -21.375 15.4375 C-21.38273437 14.65246094 -21.39046875 13.86742187 -21.3984375 13.05859375 C-21.26695313 12.37925781 -21.13546875 11.69992188 -21 11 C-18 9 -18 9 -15 9 C-14.938125 8.2575 -14.87625 7.515 -14.8125 6.75 C-12.64634486 -0.581602 -6.55201002 -0.74845058 0 0 Z " fill="#3F90BF" transform="translate(27,7)"/>
<path d="M0 0 C2 1.125 2 1.125 3 3 C3.4375 6.4375 3.4375 6.4375 3 10 C1.13291495 12.36497439 -0.32061431 13.66030715 -3 15 C-5.09375 14.984375 -5.09375 14.984375 -7.5 14.75 C-8.2940625 14.68296875 -9.088125 14.6159375 -9.90625 14.546875 C-12 14 -12 14 -14 11 C-14.55396415 7.43160753 -14.74798017 4.1041612 -12.6875 1.0625 C-8.4427152 -1.61014228 -4.66974462 -1.07014981 0 0 Z " fill="#62CBFA" transform="translate(28,9)"/>
<path d="M0 0 C0.99 0.495 0.99 0.495 2 1 C2.59355614 3.64860427 2.74209269 6.29197322 3 9 C9.32677392 10.38433932 14.57378164 11.32956242 21 10 C22.04800781 9.86335938 23.09601562 9.72671875 24.17578125 9.5859375 C25.33464844 9.43382812 26.49351563 9.28171875 27.6875 9.125 C29.33298828 8.91230469 29.33298828 8.91230469 31.01171875 8.6953125 C34.0823733 7.9808334 35.67006324 7.0748342 38 5 C37.76171875 6.89453125 37.76171875 6.89453125 37 9 C27.45838607 14.20269054 15.22678594 13.92111426 4.91015625 11.73046875 C2.59485722 10.8450681 1.48189516 9.98813264 0 8 C-0.39078556 5.27492202 -0.13616953 2.76878044 0 0 Z " fill="#4C6C81" transform="translate(6,19)"/>
<path d="M0 0 C0.99 0.66 1.98 1.32 3 2 C3 2.66 3 3.32 3 4 C4.65 4.33 6.3 4.66 8 5 C8 6.65 8 8.3 8 10 C4.7 10 1.4 10 -2 10 C-2.25 3.375 -2.25 3.375 0 0 Z " fill="#63CCFA" transform="translate(34,14)"/>
<path d="M0 0 C2.875 0.6875 2.875 0.6875 6 2 C7.375 4.625 7.375 4.625 8 7 C7.34 7.66 6.68 8.32 6 9 C3.375 8.625 3.375 8.625 1 8 C0.34 5.69 -0.32 3.38 -1 1 C-0.67 0.67 -0.34 0.34 0 0 Z " fill="#6ACBF7" transform="translate(7,17)"/>
<path d="M0 0 C0.33 0.99 0.66 1.98 1 3 C-5.04852394 6.9747443 -9.95947863 7.11933087 -17 7 C-16.67 6.34 -16.34 5.68 -16 5 C-12.71289494 4.38876146 -9.42286315 4.03941785 -6.1015625 3.66015625 C-2.95951758 2.99138346 -1.90029536 2.5086633 0 0 Z " fill="#485C6D" transform="translate(43,24)"/>
<path d="M0 0 C1.65 0.33 3.3 0.66 5 1 C5 2.65 5 4.3 5 6 C3.35 6 1.7 6 0 6 C-1.24546405 3.50907189 -0.7767578 2.58919267 0 0 Z " fill="#5DC4F3" transform="translate(37,18)"/>
<path d="M0 0 C-0.9590625 0.556875 -0.9590625 0.556875 -1.9375 1.125 C-4.63858072 3.58052793 -4.68407005 5.44578805 -5 9 C-6.57035335 6.50590939 -7.0274945 5.29556584 -6.75 2.3125 C-6.5025 1.549375 -6.255 0.78625 -6 0 C-3.50907189 -1.24546405 -2.58919267 -0.7767578 0 0 Z " fill="#55A7D3" transform="translate(37,14)"/>
</svg>
